<mxfile host="app.diagrams.net" agent="Mozilla/5.0 (Macintosh; Intel Mac OS X 10_15_7) AppleWebKit/537.36 (KHTML, like Gecko) Chrome/129.0.0.0 Safari/537.36" version="24.7.17">
  <diagram name="Страница — 1" id="DxhDVJHK3L4Q7aFtXiuk">
    <mxGraphModel grid="1" page="1" gridSize="10" guides="1" tooltips="1" connect="1" arrows="1" fold="1" pageScale="1" pageWidth="3300" pageHeight="4681" math="0" shadow="0">
      <root>
        <mxCell id="0" />
        <mxCell id="1" parent="0" />
        <mxCell id="wwXaEwJUPEr7kGX-C4Wh-1" value="" style="rounded=0;whiteSpace=wrap;html=1;" vertex="1" parent="1">
          <mxGeometry x="580" y="190" width="1370" height="860" as="geometry" />
        </mxCell>
        <mxCell id="wwXaEwJUPEr7kGX-C4Wh-3" value="Tree &quot;Devops skills&quot; (public)" style="text;html=1;align=center;verticalAlign=middle;whiteSpace=wrap;rounded=0;fontSize=23;fontStyle=1" vertex="1" parent="1">
          <mxGeometry x="1102.5" y="190" width="325" height="50" as="geometry" />
        </mxCell>
        <mxCell id="wwXaEwJUPEr7kGX-C4Wh-14" style="rounded=0;orthogonalLoop=1;jettySize=auto;html=1;entryX=1;entryY=1;entryDx=0;entryDy=0;" edge="1" parent="1" source="wwXaEwJUPEr7kGX-C4Wh-5" target="wwXaEwJUPEr7kGX-C4Wh-7">
          <mxGeometry relative="1" as="geometry" />
        </mxCell>
        <mxCell id="wwXaEwJUPEr7kGX-C4Wh-16" style="rounded=0;orthogonalLoop=1;jettySize=auto;html=1;entryX=0.5;entryY=1;entryDx=0;entryDy=0;" edge="1" parent="1" source="wwXaEwJUPEr7kGX-C4Wh-5" target="wwXaEwJUPEr7kGX-C4Wh-6">
          <mxGeometry relative="1" as="geometry" />
        </mxCell>
        <mxCell id="wwXaEwJUPEr7kGX-C4Wh-20" style="rounded=0;orthogonalLoop=1;jettySize=auto;html=1;entryX=0;entryY=1;entryDx=0;entryDy=0;" edge="1" parent="1" source="wwXaEwJUPEr7kGX-C4Wh-5" target="wwXaEwJUPEr7kGX-C4Wh-19">
          <mxGeometry relative="1" as="geometry" />
        </mxCell>
        <mxCell id="wwXaEwJUPEr7kGX-C4Wh-17" style="edgeStyle=orthogonalEdgeStyle;rounded=0;orthogonalLoop=1;jettySize=auto;html=1;entryX=0.5;entryY=1;entryDx=0;entryDy=0;" edge="1" parent="1" source="wwXaEwJUPEr7kGX-C4Wh-6" target="wwXaEwJUPEr7kGX-C4Wh-8">
          <mxGeometry relative="1" as="geometry" />
        </mxCell>
        <mxCell id="wwXaEwJUPEr7kGX-C4Wh-15" style="rounded=0;orthogonalLoop=1;jettySize=auto;html=1;entryX=0;entryY=1;entryDx=0;entryDy=0;" edge="1" parent="1" source="wwXaEwJUPEr7kGX-C4Wh-7" target="wwXaEwJUPEr7kGX-C4Wh-6">
          <mxGeometry relative="1" as="geometry" />
        </mxCell>
        <mxCell id="wwXaEwJUPEr7kGX-C4Wh-22" style="edgeStyle=orthogonalEdgeStyle;rounded=0;orthogonalLoop=1;jettySize=auto;html=1;" edge="1" parent="1" source="wwXaEwJUPEr7kGX-C4Wh-9" target="wwXaEwJUPEr7kGX-C4Wh-4">
          <mxGeometry relative="1" as="geometry" />
        </mxCell>
        <mxCell id="wwXaEwJUPEr7kGX-C4Wh-10" value="&lt;font style=&quot;font-size: 18px;&quot;&gt;Name: Kubernetes&lt;br&gt;Description: ...&lt;br&gt;Completion: percentage&lt;br&gt;Parent: Docker&lt;br&gt;&lt;/font&gt;&lt;div&gt;&lt;br&gt;&lt;/div&gt;" style="rounded=0;whiteSpace=wrap;html=1;align=left;" vertex="1" parent="1">
          <mxGeometry x="1670" y="190" width="280" height="520" as="geometry" />
        </mxCell>
        <mxCell id="wwXaEwJUPEr7kGX-C4Wh-12" value="&lt;font style=&quot;font-size: 24px;&quot;&gt;&lt;b style=&quot;&quot;&gt;My trees:&lt;/b&gt;&lt;br&gt;- DevOps&lt;br&gt;- Golang&lt;br&gt;- Kotlin&lt;br&gt;- Marketing&lt;/font&gt;" style="rounded=0;whiteSpace=wrap;html=1;align=left;" vertex="1" parent="1">
          <mxGeometry x="580" y="190" width="240" height="510" as="geometry" />
        </mxCell>
        <mxCell id="wwXaEwJUPEr7kGX-C4Wh-21" style="rounded=0;orthogonalLoop=1;jettySize=auto;html=1;entryX=0.5;entryY=1;entryDx=0;entryDy=0;" edge="1" parent="1" source="wwXaEwJUPEr7kGX-C4Wh-19" target="wwXaEwJUPEr7kGX-C4Wh-9">
          <mxGeometry relative="1" as="geometry" />
        </mxCell>
        <mxCell id="wwXaEwJUPEr7kGX-C4Wh-4" value="Kubernetes" style="ellipse;whiteSpace=wrap;html=1;aspect=fixed;strokeWidth=3;" vertex="1" parent="1">
          <mxGeometry x="1347.5" y="360" width="80" height="80" as="geometry" />
        </mxCell>
        <mxCell id="wwXaEwJUPEr7kGX-C4Wh-5" value="Basic bash commands&lt;br&gt;(100%)" style="ellipse;whiteSpace=wrap;html=1;aspect=fixed;fillColor=#B9E0A5;" vertex="1" parent="1">
          <mxGeometry x="1132.5" y="690" width="80" height="80" as="geometry" />
        </mxCell>
        <mxCell id="wwXaEwJUPEr7kGX-C4Wh-6" value="Ansible&lt;br&gt;(75%)" style="ellipse;whiteSpace=wrap;html=1;aspect=fixed;fillColor=#FFFF66;" vertex="1" parent="1">
          <mxGeometry x="1147.5" y="500" width="80" height="80" as="geometry" />
        </mxCell>
        <mxCell id="wwXaEwJUPEr7kGX-C4Wh-7" value="SSH&lt;br&gt;(100%)" style="ellipse;whiteSpace=wrap;html=1;aspect=fixed;fillColor=#B9E0A5;" vertex="1" parent="1">
          <mxGeometry x="1037.5" y="590" width="80" height="80" as="geometry" />
        </mxCell>
        <mxCell id="wwXaEwJUPEr7kGX-C4Wh-8" value="Terraform" style="ellipse;whiteSpace=wrap;html=1;aspect=fixed;" vertex="1" parent="1">
          <mxGeometry x="1147.5" y="360" width="80" height="80" as="geometry" />
        </mxCell>
        <mxCell id="wwXaEwJUPEr7kGX-C4Wh-9" value="Docker&lt;br&gt;(75%)" style="ellipse;whiteSpace=wrap;html=1;aspect=fixed;fillColor=#FFFF66;" vertex="1" parent="1">
          <mxGeometry x="1347.5" y="480" width="80" height="80" as="geometry" />
        </mxCell>
        <mxCell id="wwXaEwJUPEr7kGX-C4Wh-19" value="Network&lt;br&gt;(100%)" style="ellipse;whiteSpace=wrap;html=1;aspect=fixed;fillColor=#B9E0A5;" vertex="1" parent="1">
          <mxGeometry x="1267.5" y="590" width="80" height="80" as="geometry" />
        </mxCell>
        <mxCell id="wwXaEwJUPEr7kGX-C4Wh-23" value="Add new node" style="rounded=1;whiteSpace=wrap;html=1;fontSize=18;" vertex="1" parent="1">
          <mxGeometry x="1030" y="900" width="130" height="60" as="geometry" />
        </mxCell>
        <mxCell id="wwXaEwJUPEr7kGX-C4Wh-24" value="Delete" style="rounded=1;whiteSpace=wrap;html=1;fontSize=18;" vertex="1" parent="1">
          <mxGeometry x="1202.5" y="900" width="127.5" height="60" as="geometry" />
        </mxCell>
        <mxCell id="wwXaEwJUPEr7kGX-C4Wh-25" value="Share the tree" style="rounded=1;whiteSpace=wrap;html=1;fontSize=18;" vertex="1" parent="1">
          <mxGeometry x="1380" y="900" width="130" height="60" as="geometry" />
        </mxCell>
        <mxCell id="wwXaEwJUPEr7kGX-C4Wh-39" style="edgeStyle=orthogonalEdgeStyle;rounded=0;orthogonalLoop=1;jettySize=auto;html=1;entryX=0.5;entryY=1;entryDx=0;entryDy=0;" edge="1" parent="1" source="wwXaEwJUPEr7kGX-C4Wh-26" target="wwXaEwJUPEr7kGX-C4Wh-35">
          <mxGeometry relative="1" as="geometry" />
        </mxCell>
        <mxCell id="wwXaEwJUPEr7kGX-C4Wh-46" style="edgeStyle=orthogonalEdgeStyle;rounded=0;orthogonalLoop=1;jettySize=auto;html=1;" edge="1" parent="1" source="wwXaEwJUPEr7kGX-C4Wh-26" target="wwXaEwJUPEr7kGX-C4Wh-29">
          <mxGeometry relative="1" as="geometry" />
        </mxCell>
        <mxCell id="wwXaEwJUPEr7kGX-C4Wh-26" value="User" style="shape=umlActor;verticalLabelPosition=bottom;verticalAlign=top;html=1;outlineConnect=0;" vertex="1" parent="1">
          <mxGeometry x="2465" y="2030" width="30" height="60" as="geometry" />
        </mxCell>
        <mxCell id="wwXaEwJUPEr7kGX-C4Wh-29" value="Identity server" style="rounded=0;whiteSpace=wrap;html=1;" vertex="1" parent="1">
          <mxGeometry x="2600" y="1920" width="120" height="60" as="geometry" />
        </mxCell>
        <mxCell id="wwXaEwJUPEr7kGX-C4Wh-30" value="Nodes database (graph db?)" style="shape=cylinder3;whiteSpace=wrap;html=1;boundedLbl=1;backgroundOutline=1;size=15;" vertex="1" parent="1">
          <mxGeometry x="2310" y="1590" width="90" height="80" as="geometry" />
        </mxCell>
        <mxCell id="wwXaEwJUPEr7kGX-C4Wh-32" value="Tests database&lt;br&gt;(postgresql)" style="shape=cylinder3;whiteSpace=wrap;html=1;boundedLbl=1;backgroundOutline=1;size=15;" vertex="1" parent="1">
          <mxGeometry x="2560" y="1590" width="90" height="80" as="geometry" />
        </mxCell>
        <mxCell id="wwXaEwJUPEr7kGX-C4Wh-33" value="Trees database&lt;br&gt;(postgresql)" style="shape=cylinder3;whiteSpace=wrap;html=1;boundedLbl=1;backgroundOutline=1;size=15;" vertex="1" parent="1">
          <mxGeometry x="2435" y="1590" width="90" height="80" as="geometry" />
        </mxCell>
        <mxCell id="wwXaEwJUPEr7kGX-C4Wh-48" style="edgeStyle=orthogonalEdgeStyle;rounded=0;orthogonalLoop=1;jettySize=auto;html=1;" edge="1" parent="1" source="wwXaEwJUPEr7kGX-C4Wh-34" target="wwXaEwJUPEr7kGX-C4Wh-47">
          <mxGeometry relative="1" as="geometry" />
        </mxCell>
        <mxCell id="wwXaEwJUPEr7kGX-C4Wh-54" style="edgeStyle=orthogonalEdgeStyle;rounded=0;orthogonalLoop=1;jettySize=auto;html=1;" edge="1" parent="1" source="wwXaEwJUPEr7kGX-C4Wh-34" target="wwXaEwJUPEr7kGX-C4Wh-51">
          <mxGeometry relative="1" as="geometry" />
        </mxCell>
        <mxCell id="wwXaEwJUPEr7kGX-C4Wh-63" style="edgeStyle=orthogonalEdgeStyle;rounded=0;orthogonalLoop=1;jettySize=auto;html=1;" edge="1" parent="1" source="wwXaEwJUPEr7kGX-C4Wh-34" target="wwXaEwJUPEr7kGX-C4Wh-60">
          <mxGeometry relative="1" as="geometry" />
        </mxCell>
        <mxCell id="wwXaEwJUPEr7kGX-C4Wh-34" value="Webserver" style="rounded=0;whiteSpace=wrap;html=1;" vertex="1" parent="1">
          <mxGeometry x="2420" y="1740" width="120" height="60" as="geometry" />
        </mxCell>
        <mxCell id="wwXaEwJUPEr7kGX-C4Wh-40" style="edgeStyle=orthogonalEdgeStyle;rounded=0;orthogonalLoop=1;jettySize=auto;html=1;entryX=0.5;entryY=1;entryDx=0;entryDy=0;" edge="1" parent="1" source="wwXaEwJUPEr7kGX-C4Wh-35" target="wwXaEwJUPEr7kGX-C4Wh-34">
          <mxGeometry relative="1" as="geometry" />
        </mxCell>
        <mxCell id="wwXaEwJUPEr7kGX-C4Wh-35" value="API Gateway" style="rounded=0;whiteSpace=wrap;html=1;" vertex="1" parent="1">
          <mxGeometry x="2420" y="1920" width="120" height="60" as="geometry" />
        </mxCell>
        <mxCell id="wwXaEwJUPEr7kGX-C4Wh-41" style="edgeStyle=orthogonalEdgeStyle;rounded=0;orthogonalLoop=1;jettySize=auto;html=1;entryX=0.5;entryY=1;entryDx=0;entryDy=0;entryPerimeter=0;" edge="1" parent="1" source="wwXaEwJUPEr7kGX-C4Wh-34" target="wwXaEwJUPEr7kGX-C4Wh-33">
          <mxGeometry relative="1" as="geometry" />
        </mxCell>
        <mxCell id="wwXaEwJUPEr7kGX-C4Wh-42" style="edgeStyle=orthogonalEdgeStyle;rounded=0;orthogonalLoop=1;jettySize=auto;html=1;entryX=0.5;entryY=1;entryDx=0;entryDy=0;entryPerimeter=0;" edge="1" parent="1" source="wwXaEwJUPEr7kGX-C4Wh-34" target="wwXaEwJUPEr7kGX-C4Wh-30">
          <mxGeometry relative="1" as="geometry">
            <Array as="points">
              <mxPoint x="2480" y="1710" />
              <mxPoint x="2355" y="1710" />
            </Array>
          </mxGeometry>
        </mxCell>
        <mxCell id="wwXaEwJUPEr7kGX-C4Wh-43" style="edgeStyle=orthogonalEdgeStyle;rounded=0;orthogonalLoop=1;jettySize=auto;html=1;entryX=0.5;entryY=1;entryDx=0;entryDy=0;entryPerimeter=0;" edge="1" parent="1" source="wwXaEwJUPEr7kGX-C4Wh-34" target="wwXaEwJUPEr7kGX-C4Wh-32">
          <mxGeometry relative="1" as="geometry">
            <Array as="points">
              <mxPoint x="2480" y="1710" />
              <mxPoint x="2605" y="1710" />
            </Array>
          </mxGeometry>
        </mxCell>
        <mxCell id="wwXaEwJUPEr7kGX-C4Wh-47" value="Notification service" style="rounded=0;whiteSpace=wrap;html=1;" vertex="1" parent="1">
          <mxGeometry x="2260" y="1740" width="120" height="60" as="geometry" />
        </mxCell>
        <mxCell id="wwXaEwJUPEr7kGX-C4Wh-51" value="Analytics gateway" style="rounded=0;whiteSpace=wrap;html=1;" vertex="1" parent="1">
          <mxGeometry x="2700" y="1650" width="120" height="60" as="geometry" />
        </mxCell>
        <mxCell id="wwXaEwJUPEr7kGX-C4Wh-52" value="data-lake" style="shape=cylinder3;whiteSpace=wrap;html=1;boundedLbl=1;backgroundOutline=1;size=15;" vertex="1" parent="1">
          <mxGeometry x="2700" y="1520" width="120" height="90" as="geometry" />
        </mxCell>
        <mxCell id="wwXaEwJUPEr7kGX-C4Wh-53" value="Email provider" style="ellipse;shape=cloud;whiteSpace=wrap;html=1;" vertex="1" parent="1">
          <mxGeometry x="2050" y="1710" width="170" height="80" as="geometry" />
        </mxCell>
        <mxCell id="wwXaEwJUPEr7kGX-C4Wh-55" style="edgeStyle=orthogonalEdgeStyle;rounded=0;orthogonalLoop=1;jettySize=auto;html=1;entryX=0.5;entryY=1;entryDx=0;entryDy=0;entryPerimeter=0;" edge="1" parent="1" source="wwXaEwJUPEr7kGX-C4Wh-51" target="wwXaEwJUPEr7kGX-C4Wh-52">
          <mxGeometry relative="1" as="geometry" />
        </mxCell>
        <mxCell id="wwXaEwJUPEr7kGX-C4Wh-57" style="edgeStyle=orthogonalEdgeStyle;rounded=0;orthogonalLoop=1;jettySize=auto;html=1;entryX=0.96;entryY=0.7;entryDx=0;entryDy=0;entryPerimeter=0;" edge="1" parent="1" source="wwXaEwJUPEr7kGX-C4Wh-47" target="wwXaEwJUPEr7kGX-C4Wh-53">
          <mxGeometry relative="1" as="geometry" />
        </mxCell>
        <mxCell id="wwXaEwJUPEr7kGX-C4Wh-58" style="edgeStyle=orthogonalEdgeStyle;rounded=0;orthogonalLoop=1;jettySize=auto;html=1;entryX=0;entryY=0.3333333333333333;entryDx=0;entryDy=0;entryPerimeter=0;" edge="1" parent="1" source="wwXaEwJUPEr7kGX-C4Wh-53" target="wwXaEwJUPEr7kGX-C4Wh-26">
          <mxGeometry relative="1" as="geometry">
            <Array as="points">
              <mxPoint x="2140" y="2050" />
            </Array>
          </mxGeometry>
        </mxCell>
        <mxCell id="wwXaEwJUPEr7kGX-C4Wh-60" value="Monitoring stack&lt;br&gt;(logs, metrics, traces)" style="rounded=0;whiteSpace=wrap;html=1;" vertex="1" parent="1">
          <mxGeometry x="2600" y="1800" width="120" height="60" as="geometry" />
        </mxCell>
      </root>
    </mxGraphModel>
  </diagram>
</mxfile>
